# xmcd
#
# Track frame offsets:
#	150
#	7705
#	27997
#	53382
#	77522
#	99322
#	124187
#	148230
#	175687
#
# Disc length: 2642 seconds
#
# Revision: 2
# Processed by: cddbd v1.5.2PL0 Copyright (c) Steve Scherf et al.
# Submitted via: EZCDAudioConverter 1.3.4.1
#
DISCID=5f0a5009
DTITLE=Tramaine - The Search Is Over
DYEAR=1986
DGENRE=Gospel
TTITLE0=Heaven's Gate (Interlude)
TTITLE1=Fall Down
TTITLE2=Child Of The King
TTITLE3=In The Morning Time
TTITLE4=With All My Heart
TTITLE5=How I Got Over
TTITLE6=The Search Is Over
TTITLE7=Everybody Ought To Know
TTITLE8=I Know Him
EXTD=
EXTT0=
EXTT1=
EXTT2=
EXTT3=
EXTT4=
EXTT5=
EXTT6=
EXTT7=
EXTT8=
PLAYORDER=
